<?xml version="1.0" encoding="utf-8"?>
<!-- Generator: Adobe Illustrator 28.0.0, SVG Export Plug-In . SVG Version: 6.00 Build 0)  -->
<svg version="1.1" id="Layer_1" xmlns="http://www.w3.org/2000/svg" xmlns:xlink="http://www.w3.org/1999/xlink" x="0px" y="0px"
	 viewBox="0 0 2283.97 2000" style="enable-background:new 0 0 2283.97 2000;" xml:space="preserve">
<style type="text/css">
	.st0{fill:#E2F2F1;}
	.st1{fill:#1A6991;}
	.st2{fill:#4CB7D8;}
	.st3{fill:#ABE9FF;}
	.st4{fill:#0A161E;}
	.st5{fill:#EF7F33;}
	.st6{fill:#223749;}
	.st7{fill:#FEC786;}
	.st8{fill:#F99247;}
	.st9{fill:#122330;}
	.st10{fill:#21111D;}
	.st11{fill:#F5C786;}
	.st12{fill:#FE9F73;}
	.st13{fill:#F07162;}
	.st14{fill:#EF3A4C;}
	.st15{fill:#E02742;}
	.st16{fill:#F7597F;}
	.st17{fill:#FFD4E0;}
	.st18{fill:#49263E;}
</style>
<g>
	<path class="st0" d="M352.98,1809.42c0,0-253-418.31-44.45-653.85C469.65,973.59,69.36,693.27,699.37,377.92
		c599.49-300.07,1034.05-84.14,1225.77,301.13c228,458.19,168.72,831.65-69.64,1130.36
		C1281.14,1809.42,352.98,1809.42,352.98,1809.42z"/>
	<g>
		<g>
			<g>
				<g>
					<path class="st0" d="M1281.21,642.01c5.47-24.89,6.72-50.11,4.01-74.72l53.18-30.55l-13.95-39.55l-13.95-39.55l-60.57,9.59
						c-13.34-20.86-30.13-39.71-50-55.66l16.01-59.22l-37.83-18.1l-37.83-18.1l-36.06,49.62c-24.89-5.47-50.1-6.72-74.71-4.01
						l-30.54-53.19l-39.55,13.95l-39.55,13.95l9.59,60.58c-20.86,13.34-39.71,30.13-55.66,50.01l-59.21-16.01l-18.1,37.83
						l-18.1,37.83l49.62,36.06c-5.47,24.89-6.72,50.11-4.01,74.72l-53.18,30.55l13.95,39.55l13.95,39.55l60.58-9.59
						c13.34,20.86,30.13,39.71,50,55.66l-16.01,59.22l37.83,18.1l37.83,18.1l36.06-49.62c24.89,5.47,50.1,6.72,74.71,4.01
						l30.54,53.19l39.55-13.95l39.55-13.95l-9.59-60.58c20.86-13.34,39.71-30.13,55.66-50.01l59.21,16.01l18.1-37.83l18.1-37.83
						L1281.21,642.01z M1060.76,749.62c-86.82,3.4-159.96-64.24-163.35-151.07c-3.39-86.83,64.24-159.97,151.06-163.37
						c86.82-3.4,159.96,64.24,163.35,151.07C1215.21,673.08,1147.58,746.22,1060.76,749.62z"/>
				</g>
			</g>
		</g>
	</g>
	<g>
		<g>
			<g>
				<g>
					<g>
						<path class="st0" d="M1765.9,723.72c-6.01-16.57-14.62-31.76-25.3-45.15l19.77-37.53l-22.79-17.95l-22.79-17.95l-31.85,28.02
							c-15.51-7.25-32.3-12.06-49.82-14.02l-12.56-40.53l-28.8,3.42l-28.8,3.42l-2.71,42.34c-16.57,6.01-31.76,14.62-45.14,25.31
							l-37.53-19.77l-17.94,22.79l-17.94,22.79l28.02,31.85c-7.25,15.51-12.05,32.3-14.02,49.82l-40.52,12.56l3.42,28.8l3.42,28.8
							l42.34,2.71c6.01,16.57,14.62,31.76,25.3,45.14l-19.77,37.53l22.79,17.95l22.79,17.95l31.85-28.02
							c15.51,7.25,32.3,12.06,49.81,14.02l12.56,40.53l28.8-3.42l28.8-3.42l2.71-42.34c16.57-6.01,31.76-14.62,45.14-25.31
							l37.53,19.77l17.94-22.79l17.94-22.79l-28.02-31.85c7.25-15.52,12.05-32.3,14.02-49.82l40.52-12.56l-3.42-28.8l-3.42-28.8
							L1765.9,723.72z M1627.98,886.65c-59.67,7.09-113.8-35.54-120.89-95.22c-7.09-59.68,35.53-113.81,95.21-120.9
							c59.67-7.09,113.8,35.54,120.89,95.22C1730.28,825.43,1687.65,879.56,1627.98,886.65z"/>
					</g>
				</g>
			</g>
		</g>
	</g>
	<g>
		<g>
			<g>
				<g>
					<g>
						<path class="st0" d="M691.8,597.55c-6.65-9.89-14.77-18.45-23.97-25.48l6.84-27.85l-17.88-8.05l-17.88-8.05L622.6,551.7
							c-11.36-2.23-23.15-2.63-34.96-1.06l-14.85-24.53l-18.33,6.95l-18.33,6.95l5.14,28.21c-9.88,6.65-18.45,14.77-25.48,23.97
							l-27.84-6.84l-8.05,17.88l-8.05,17.88l23.58,16.32c-2.22,11.36-2.63,23.16-1.06,34.97l-24.53,14.85l6.95,18.33l6.95,18.33
							l28.21-5.14c6.65,9.89,14.77,18.45,23.97,25.48l-6.84,27.85l17.88,8.05l17.88,8.05l16.31-23.58
							c11.36,2.23,23.15,2.63,34.96,1.06l14.85,24.53l18.33-6.95l18.33-6.95l-5.14-28.21c9.88-6.65,18.45-14.77,25.48-23.97
							l27.84,6.84l8.05-17.88l8.05-17.88l-23.58-16.32c2.22-11.36,2.63-23.16,1.06-34.97l24.53-14.85l-6.95-18.33l-6.95-18.33
							L691.8,597.55z M627.93,726.94c-37.98,14.4-80.45-4.73-94.84-42.72s4.73-80.45,42.71-94.85c37.98-14.4,80.45,4.73,94.84,42.72
							C685.04,670.08,665.91,712.55,627.93,726.94z"/>
					</g>
				</g>
			</g>
		</g>
	</g>
	<g>
		<g>
			<g>
				<g>
					<g>
						
							<rect x="463.42" y="1218" transform="matrix(-1 -1.224647e-16 1.224647e-16 -1 2223.239 2843.8977)" class="st1" width="1296.41" height="407.9"/>
					</g>
				</g>
			</g>
			<g>
				<g>
					<g>
						
							<rect x="469.14" y="1218.68" transform="matrix(-1 -1.224647e-16 1.224647e-16 -1 1160.7251 3025.9526)" class="st2" width="222.44" height="588.59"/>
					</g>
				</g>
			</g>
			<g>
				<g>
					<g>
						<rect x="451.25" y="1218.68" class="st3" width="17.9" height="588.59"/>
					</g>
				</g>
			</g>
			<g>
				<g>
					<rect x="468.46" y="1218.68" width="1.36" height="588.59"/>
				</g>
			</g>
			<g>
				<g>
					<rect x="450.56" y="1218.68" width="1.36" height="498.77"/>
				</g>
			</g>
			<g>
				<g>
					<g>
						<g>
							<path class="st4" d="M1274.08,1182.29h65.66l-37.78-184.14h93.21l37.78,184.14h65.45c9.23,0,19.53,7.48,23,16.71h0h-257.74
								C1260.18,1189.77,1264.85,1182.29,1274.08,1182.29z"/>
						</g>
					</g>
				</g>
				<g>
					<g>
						<g>
							<path class="st5" d="M1072.57,1111.99l5.93-42.87l37.03-267.51c1.76-12.71,13.49-23.01,26.2-23.01h518.69l0.09-0.67
								c13.06,0,22.22,10.63,20.41,23.69l-42.97,310.38c-1.28,9.27-8.54,16.82-16.17,16.82h-538.39l0.09-0.67
								C1076.23,1128.14,1071.34,1120.91,1072.57,1111.99z"/>
						</g>
					</g>
				</g>
				<g>
					<g>
						<g>
							<g>
								<g>
									<polygon class="st6" points="1327.96,1193.43 1421.17,1193.43 1381.11,998.15 1287.9,998.15 									"/>
								</g>
							</g>
						</g>
					</g>
				</g>
				<g>
					<g>
						<g>
							<g>
								<g>
									<path class="st7" d="M1061.94,1069.12l37.03-267.51c1.76-12.71,13.49-23.01,26.2-23.01h518.69
										c12.71,0,21.59,10.3,19.83,23.01l-37.03,267.51H1061.94z"/>
								</g>
							</g>
						</g>
					</g>
				</g>
				<g>
					<g>
						<g>
							<g>
								<g>
									<path class="st8" d="M1493.89,1082.58c0.05,0.05,0.1,0.1,0.12,0.12c0,0.01,0.01,0.01,0.01,0.03
										c0.03,0.03,0.04,0.05,0.04,0.05l0.15-0.11l0.12-0.08c0-0.01-0.03-0.04-0.07-0.08c-0.03,0-0.07,0.01-0.1,0.01l-0.15,0.03
										L1493.89,1082.58z"/>
								</g>
								<g>
									<path class="st8" d="M1448.55,1082.84h0.03l-0.01-0.03C1448.55,1082.83,1448.55,1082.84,1448.55,1082.84z"/>
								</g>
								<g>
									<path class="st8" d="M1438.58,1069.43c-0.01-0.04-0.03-0.08-0.03-0.12c0-0.07,0.01-0.12,0.04-0.18h-0.14L1438.58,1069.43z"
										/>
								</g>
							</g>
						</g>
					</g>
				</g>
				<g>
					<g>
						<g>
							<g>
								<g>
									<path class="st3" d="M1076.76,1057.51l35.33-255.18c0.93-6.69,7.29-12.11,14.22-12.11h513.18c6.93,0,11.8,5.42,10.87,12.11
										l-35.33,255.18H1076.76z"/>
								</g>
							</g>
						</g>
					</g>
				</g>
				<g>
					<g>
						<g>
							<g>
								<g>
									<path class="st9" d="M1249.6,1199c-3.47-9.23,1.19-16.71,10.42-16.71h224.32c9.23,0,19.53,7.48,23,16.71v0L1249.6,1199z"/>
								</g>
							</g>
						</g>
					</g>
				</g>
				<g>
					<g>
						<g>
							<g>
								<g>
									<path class="st10" d="M1066.84,1128.81h538.39c7.63,0,14.88-7.55,16.17-16.82l42.97-310.38
										c1.81-13.06-7.35-23.69-20.41-23.69l-0.19,1.35c12.32,0,20.95,10.02,19.25,22.34l-42.97,310.38
										c-1.18,8.53-7.74,15.47-14.63,15.47h-538.39L1066.84,1128.81z"/>
								</g>
							</g>
						</g>
					</g>
				</g>
				<g>
					<g>
						<g>
							<g>
								<g>
									<polygon class="st10" points="1093.72,1099.02 1094.92,1098.24 1084.54,1080.34 1083.34,1081.13 									"/>
								</g>
							</g>
						</g>
					</g>
				</g>
				<g>
					<g>
						<g>
							<g>
								<g>
									<polygon class="st10" points="1092.55,1107.49 1093.75,1106.69 1083.3,1089.28 1082.11,1090.08 									"/>
								</g>
							</g>
						</g>
					</g>
				</g>
				<g>
					<g>
						<g>
							<g>
								<g>
									<polygon class="st10" points="1388,1143.85 1389.03,1143.18 1380.35,1131.99 1379.31,1132.65 									"/>
								</g>
							</g>
						</g>
					</g>
				</g>
				<g>
					<g>
						<g>
							<g>
								<g>
									<polygon class="st10" points="1388.25,1150.28 1389.27,1149.6 1381.47,1139.74 1380.45,1140.42 									"/>
								</g>
							</g>
						</g>
					</g>
				</g>
				<g>
					<g>
						<g>
							<g>
								<g>
									<path class="st10" d="M1075.99,1058.18h538.95l0.19-1.35h-537.6l35.23-254.51c0.87-6.31,6.91-11.44,13.46-11.44l0.19-1.35
										c-7.29,0-14.02,5.74-14.99,12.79L1075.99,1058.18z"/>
								</g>
							</g>
						</g>
					</g>
				</g>
				<g>
					<g>
						<g>
							<g>
								<g>
									<path class="st11" d="M1494.01,1082.7c0,0.01,0.01,0.01,0.01,0.03c0.03,0.03,0.04,0.05,0.04,0.05l0.15-0.11
										c-0.03,0-0.04,0-0.07,0.01c-0.01,0-0.01,0-0.03,0L1494.01,1082.7z"/>
								</g>
							</g>
						</g>
						<g>
							<g>
								<g>
									<path class="st8" d="M1066.92,1128.14h538.39c7.27,0,14.16-7.23,15.4-16.15l5.93-42.86h-188.06
										c-0.03,0.05-0.04,0.11-0.04,0.18c0,0.04,0.01,0.08,0.03,0.12l-0.12-0.3h-376.52l-5.93,42.86
										C1054.77,1120.91,1059.65,1128.14,1066.92,1128.14z M1448.55,1082.84c0,0,0-0.01,0.01-0.03l0.01,0.03H1448.55z"/>
								</g>
							</g>
						</g>
					</g>
				</g>
				<g>
					<g>
						<g>
							<g>
								<g>
									<g>
										<path d="M1438.59,1069.13h4.83c7.01-1.13,16.12-3.77,20.41-5.07c0.95-0.29,1.68-0.52,2.07-0.64
											c0.22-0.07,0.34-0.11,0.35-0.11c0.15-0.05,0.25-0.2,0.23-0.37c0-0.03,0-0.05-0.01-0.08c-0.05-0.18-0.26-0.29-0.44-0.22
											c-0.01,0-0.14,0.04-0.36,0.12c-0.41,0.12-1.17,0.35-2.18,0.67c-4.75,1.43-15.16,4.43-22.21,5.31
											c-0.76,0.08-1.49,0.15-2.16,0.19c-0.1,0-0.18,0.01-0.26,0.01c-0.04,0-0.08,0.01-0.11,0.03
											C1438.68,1068.99,1438.62,1069.05,1438.59,1069.13z"/>
									</g>
								</g>
							</g>
						</g>
					</g>
				</g>
				<g>
					
						<rect x="1429.18" y="1058.18" transform="matrix(-1 -1.224647e-16 1.224647e-16 -1 2901.2571 2127.2507)" class="st7" width="42.9" height="10.89"/>
				</g>
				<g>
					
						<rect x="1431.5" y="1056.83" transform="matrix(-1 -1.224647e-16 1.224647e-16 -1 2902.4763 2115.0112)" class="st10" width="39.47" height="1.35"/>
				</g>
				<g>
					
						<rect x="1409.62" y="1069.07" transform="matrix(-1 -1.224647e-16 1.224647e-16 -1 2887.0349 2147.0808)" class="st8" width="67.8" height="8.94"/>
				</g>
			</g>
			<g>
				<g>
					<g>
						
							<rect x="413.96" y="1198.44" transform="matrix(-1 -1.224647e-16 1.224647e-16 -1 2261.1482 2416.438)" class="st6" width="1433.23" height="19.56"/>
					</g>
				</g>
			</g>
			<g>
				<g>
					<g>
						
							<rect x="1538.86" y="1218" transform="matrix(-1 -1.224647e-16 1.224647e-16 -1 3329.0029 3024.5884)" class="st3" width="251.29" height="588.59"/>
					</g>
				</g>
			</g>
			<g>
				<g>
					<g>
						<rect x="1518.64" y="1218" class="st2" width="20.22" height="588.59"/>
					</g>
				</g>
			</g>
			<g>
				<g>
					<g>
						<g>
							<g>
								
									<rect x="643.11" y="1442.14" transform="matrix(-1 -1.224647e-16 1.224647e-16 -1 1481.7249 3248.7283)" class="st9" width="195.5" height="364.45"/>
							</g>
						</g>
					</g>
					<g>
						<g>
							<g>
								
									<rect x="518.8" y="1442.14" transform="matrix(-1 -1.224647e-16 1.224647e-16 -1 1161.9158 3248.7283)" class="st6" width="124.31" height="364.45"/>
							</g>
						</g>
					</g>
				</g>
				<g>
					<g>
						<g>
							<path class="st7" d="M621.99,1478.13c0,2.78,2.25,5.03,5.03,5.03c2.78,0,5.03-2.25,5.03-5.03s-2.25-5.03-5.03-5.03
								C624.24,1473.1,621.99,1475.35,621.99,1478.13z"/>
						</g>
					</g>
				</g>
				<g>
					<g>
						<g>
							<path class="st7" d="M621.99,1577.62c0,2.78,2.25,5.03,5.03,5.03c2.78,0,5.03-2.25,5.03-5.03c0-2.78-2.25-5.03-5.03-5.03
								C624.24,1572.59,621.99,1574.85,621.99,1577.62z"/>
						</g>
					</g>
				</g>
				<g>
					<g>
						<g>
							<path class="st7" d="M621.99,1677.11c0,2.78,2.25,5.03,5.03,5.03c2.78,0,5.03-2.25,5.03-5.03c0-2.78-2.25-5.03-5.03-5.03
								C624.24,1672.09,621.99,1674.34,621.99,1677.11z"/>
						</g>
					</g>
				</g>
				<g>
					<g>
						<g>
							
								<rect x="518.8" y="1633.36" transform="matrix(-1 -1.224647e-16 1.224647e-16 -1 1161.9158 3269.4827)" class="st9" width="124.31" height="2.76"/>
						</g>
					</g>
				</g>
				<g>
					<g>
						<g>
							
								<rect x="518.8" y="1728.33" transform="matrix(-1 -1.224647e-16 1.224647e-16 -1 1161.9158 3459.4221)" class="st9" width="124.31" height="2.76"/>
						</g>
					</g>
				</g>
				<g>
					<g>
						<g>
							
								<rect x="662.47" y="1464.29" transform="matrix(-1 -1.224647e-16 1.224647e-16 -1 1481.3824 2930.2156)" class="st6" width="156.44" height="1.64"/>
						</g>
					</g>
				</g>
				<g>
					<g>
						<g>
							
								<rect x="662.47" y="1472.97" transform="matrix(-1 -1.224647e-16 1.224647e-16 -1 1481.3824 2947.5806)" class="st6" width="156.44" height="1.64"/>
						</g>
					</g>
				</g>
				<g>
					<g>
						<g>
							
								<rect x="662.47" y="1481.65" transform="matrix(-1 -1.224647e-16 1.224647e-16 -1 1481.3824 2964.9451)" class="st6" width="156.44" height="1.64"/>
						</g>
					</g>
				</g>
				<g>
					<g>
						<g>
							
								<rect x="662.47" y="1490.34" transform="matrix(-1 -1.224647e-16 1.224647e-16 -1 1481.3824 2982.3098)" class="st6" width="156.44" height="1.64"/>
						</g>
					</g>
				</g>
				<g>
					<g>
						<g>
							
								<rect x="518.8" y="1526.5" transform="matrix(-1 -1.224647e-16 1.224647e-16 -1 1161.9158 3055.7544)" class="st9" width="124.31" height="2.76"/>
						</g>
					</g>
				</g>
				<g>
					<g>
						<g>
							<polygon points="517.65,1806.59 519.95,1806.59 519.95,1443.29 837.46,1443.29 837.46,1806.59 839.76,1806.59 
								839.76,1440.99 517.65,1440.99 							"/>
						</g>
					</g>
				</g>
				<g>
					<g>
						<g>
							<rect x="641.96" y="1442.14" width="2.3" height="154.58"/>
						</g>
					</g>
				</g>
				<g>
					<g>
						<g>
							
								<rect x="710.75" y="1728.56" transform="matrix(0.5594 -0.8289 0.8289 0.5594 -1141.9926 1363.9009)" width="2.3" height="55.12"/>
						</g>
					</g>
				</g>
				<g>
					<g>
						<g>
							
								<rect x="687.91" y="1740.57" transform="matrix(0.5595 -0.8288 0.8288 0.5595 -1161.9628 1350.0375)" width="2.3" height="55.12"/>
						</g>
					</g>
				</g>
			</g>
			<g>
				<g>
					<g>
						<g>
							<g>
								<g>
									<g>
										<g>
											<g>
												<g>
													<g>
														<g>
															<path class="st12" d="M975.65,855.29v56.19c0,0,0.79,18.99-15.83,21.37l3.1,25.34c1.15,9.42-4.48,18.44-13.53,21.3
																c-4.42,1.4-9.71,2.42-15.69,2.42c-19,0-29.28-14.25-30.87-21.37c-1.58-7.12,3.17-41.15,3.17-41.15l-0.58-16.72
																l2.16-64.79L975.65,855.29z"/>
														</g>
													</g>
												</g>
											</g>
										</g>
									</g>
								</g>
							</g>
						</g>
					</g>
					<g>
						<g>
							<g>
								<g>
									<g>
										<g>
											<g>
												<g>
													<g>
														<g>
															<path class="st10" d="M909.79,841l13.25,18.76c0,0,40.15,15.59,60.72-2.88c20.58-18.47,14.25-27.34,8.21-36.58
																c-2.97-4.56-17.17-13.84-34.58-6.1c-9.5,4.22-16.53-8.37-27.61-2.04c-11.08,6.33-24.15,17.3-22.69,21.63
																C908.56,838.13,909.79,841,909.79,841z"/>
														</g>
													</g>
												</g>
											</g>
										</g>
									</g>
								</g>
							</g>
						</g>
					</g>
					<g>
						<g>
							<g>
								<g>
									<g>
										<g>
											<g>
												<g>
													<g>
														<g>
															<path class="st10" d="M910.59,833.09c0,0-18.27-0.88-23.37,16.71c-5.1,17.59,1.76,26.8,1.93,32.04
																c0.18,5.24-3.38,40.59,21.44,37.96l6.7-58.39l-8.64-23.25L910.59,833.09z"/>
														</g>
													</g>
												</g>
											</g>
										</g>
									</g>
								</g>
							</g>
						</g>
					</g>
					<g>
						<g>
							<g>
								<g>
									<path class="st10" d="M963.41,860.79c0,0,1.5,16.51,0,21.01c-1.5,4.5-19.51,16.51-19.51,16.51s-1.5,31.52-4.5,33.02
										c-3,1.5-29.62-4.29-38.07-12.65c-8.46-8.36,0.55-74.4,0.55-74.4s7.5-9.01,15.01-10.51c7.5-1.5,43.53-4.5,42.03,0
										C957.4,838.27,963.41,860.79,963.41,860.79z"/>
								</g>
							</g>
						</g>
					</g>
					<g>
						<g>
							<g>
								<g>
									<g>
										<g>
											<g>
												<g>
													<g>
														<g>
															<g>
																<ellipse class="st12" cx="944.95" cy="889.58" rx="13.95" ry="14.25"/>
															</g>
														</g>
													</g>
												</g>
											</g>
										</g>
									</g>
								</g>
							</g>
						</g>
						<g>
							<g>
								<g>
									<g>
										<g>
											<g>
												<g>
													<g>
														<g>
															<g>
																<path class="st13" d="M943.92,898.31c-2.9,0-4.83-2.22-5.47-4.45c-0.75-2.63,0.11-5.18,2.2-6.51
																	c3.09-1.96,5.89-0.7,7.33,0.26c-0.6-1.62-1.55-2.79-2.82-3.51c-2.75-1.54-6.16-0.42-6.19-0.41
																	c-0.2,0.07-0.42-0.04-0.49-0.25c-0.07-0.21,0.04-0.43,0.24-0.5c0.15-0.05,3.76-1.25,6.8,0.46
																	c1.76,0.99,2.96,2.73,3.56,5.19l0.34,1.38l-0.99-1c-0.14-0.14-3.46-3.44-7.38-0.95c-2.17,1.38-2.36,3.88-1.87,5.61
																	c0.51,1.8,2.06,3.88,4.72,3.88c0.03,0,0.05,0,0.08,0c0.21,0,0.38,0.17,0.39,0.39c0,0.22-0.17,0.4-0.38,0.4
																	C943.98,898.31,943.95,898.31,943.92,898.31z"/>
															</g>
														</g>
													</g>
												</g>
											</g>
										</g>
									</g>
								</g>
							</g>
						</g>
					</g>
				</g>
				<g>
					<g>
						<g>
							<polygon class="st14" points="969.09,961.28 966.14,946.47 897.7,935.73 893.01,953.62 923.69,961.28 							"/>
						</g>
					</g>
				</g>
				<g>
					<g>
						<g>
							<path class="st12" d="M1334.31,1160.47c0,0,43.98,0.26,55.48,10.23c11.51,9.97,14.32,27.74,14.32,27.74h-86.93
								L1334.31,1160.47z"/>
						</g>
					</g>
				</g>
				<g>
					<g>
						<g>
							<g>
								<g>
									<g>
										<g>
											<g>
												<g>
													<g>
														<g>
															<g>
																<g>
																	<polygon class="st12" points="979,1768.13 895.08,1755 912.96,1665.39 1004.12,1677.14 																	"/>
																</g>
															</g>
														</g>
													</g>
												</g>
											</g>
										</g>
									</g>
								</g>
							</g>
						</g>
					</g>
					<g>
						<g>
							<g>
								<g>
									<g>
										<g>
											<g>
												<g>
													<g>
														<path class="st15" d="M893.71,1788.15h78.97l32.02-35.78l58.56,35.78h12.61c4.35,0,8.33,3.02,9.15,7.39
															c1.1,5.89-3.27,11.04-8.82,11.04H892.59c-1.35,0-2.44-1.12-2.44-2.51v-12.27
															C890.14,1789.79,891.74,1788.15,893.71,1788.15z"/>
													</g>
												</g>
											</g>
										</g>
									</g>
								</g>
							</g>
						</g>
						<g>
							<g>
								<g>
									<g>
										<g>
											<g>
												<g>
													<g>
														<path class="st16" d="M894.41,1788.26V1755c0,0,13.3-18.36,33.55-8.99c0,0,30.63,22.29,57.63-4.68l67.05,30.51
															c0,0,18.38,6.3,23.36,16.42H894.41z"/>
													</g>
												</g>
											</g>
										</g>
									</g>
								</g>
							</g>
						</g>
						<g>
							<g>
								<g>
									<g>
										<g>
											<g>
												<g>
													<g>
														<g>
															<g>
																<rect x="893.74" y="1755" width="1.34" height="33.09"/>
															</g>
														</g>
													</g>
												</g>
											</g>
										</g>
									</g>
								</g>
							</g>
						</g>
						<g>
							<g>
								<g>
									<g>
										<g>
											<g>
												<g>
													<g>
														<g>
															<g>
																<path d="M955.41,1755.36c2.57,0,4.11-0.22,4.16-0.23l-0.2-1.36c-0.16,0.02-15.98,2.3-31.03-8.33l-0.76,1.14
																	C938.36,1754.19,949.55,1755.36,955.41,1755.36z"/>
															</g>
														</g>
													</g>
												</g>
											</g>
										</g>
									</g>
								</g>
							</g>
						</g>
						<g>
							<g>
								<g>
									<g>
										<g>
											<g>
												<g>
													<g>
														<g>
															<g>
																<polygon points="910.73,1782.04 911.48,1780.9 902.91,1774.98 902.16,1776.12 																"/>
															</g>
														</g>
													</g>
												</g>
											</g>
										</g>
									</g>
								</g>
							</g>
						</g>
						<g>
							<g>
								<g>
									<g>
										<g>
											<g>
												<g>
													<g>
														<g>
															<g>
																<polygon points="916.87,1780.37 917.62,1779.23 909.06,1773.3 908.31,1774.44 																"/>
															</g>
														</g>
													</g>
												</g>
											</g>
										</g>
									</g>
								</g>
							</g>
						</g>
						<g>
							<g>
								<g>
									<g>
										<g>
											<g>
												<g>
													<g>
														<g>
															<g>
																<g>
																	<g>
																		<g>
																			<g>
																				<g>
																					<g>
																						<path d="M1082.46,1804.99c2.17-1.89,3.41-4.64,3.41-7.56c0-5.46-4.33-9.91-9.66-9.91H894.65
																							c-2.86,0-5.18,2.38-5.18,5.31v9.19h1.34v-9.19c0-2.17,1.72-3.93,3.83-3.93h181.56c4.59,0,8.32,3.83,8.32,8.53
																							c0,2.51-1.07,4.88-2.94,6.51L1082.46,1804.99z"/>
																					</g>
																				</g>
																			</g>
																		</g>
																	</g>
																</g>
															</g>
														</g>
													</g>
												</g>
											</g>
										</g>
									</g>
								</g>
							</g>
						</g>
						<g>
							<g>
								<g>
									<g>
										<g>
											<g>
												<g>
													<g>
														<g>
															<g>
																<path d="M1075.6,1788.51l1.22-0.59c-0.15-0.33-3.83-8.06-17.55-14.06c-13.49-5.9-72.81-32.89-73.4-33.16l-0.55,1.26
																	c0.6,0.27,59.93,27.27,73.42,33.17C1071.94,1780.9,1075.57,1788.43,1075.6,1788.51z"/>
															</g>
														</g>
													</g>
												</g>
											</g>
										</g>
									</g>
								</g>
							</g>
						</g>
					</g>
				</g>
				<g>
					<g>
						<g>
							<g>
								<g>
									<g>
										<g>
											<g>
												<g>
													<g>
														<g>
															<g>
																<g>
																	<polygon class="st12" points="1199.99,1768.13 1116.06,1755 1133.95,1665.39 1225.1,1677.14 																	"/>
																</g>
															</g>
														</g>
													</g>
												</g>
											</g>
										</g>
									</g>
								</g>
							</g>
						</g>
					</g>
					<g>
						<g>
							<g>
								<g>
									<g>
										<g>
											<g>
												<g>
													<g>
														<path class="st14" d="M1114.69,1788.15h78.97l32.02-35.78l58.56,35.78h12.61c4.35,0,8.33,3.02,9.15,7.39
															c1.1,5.89-3.27,11.04-8.82,11.04h-183.62c-1.35,0-2.44-1.12-2.44-2.51v-12.27
															C1111.12,1789.79,1112.72,1788.15,1114.69,1788.15z"/>
													</g>
												</g>
											</g>
										</g>
									</g>
								</g>
							</g>
						</g>
						<g>
							<g>
								<g>
									<g>
										<g>
											<g>
												<g>
													<g>
														<path class="st16" d="M1115.39,1788.26V1755c0,0,13.3-18.36,33.55-8.99c0,0,30.63,22.29,57.63-4.68l67.05,30.51
															c0,0,18.38,6.3,23.36,16.42H1115.39z"/>
													</g>
												</g>
											</g>
										</g>
									</g>
								</g>
							</g>
						</g>
						<g>
							<g>
								<g>
									<g>
										<g>
											<g>
												<g>
													<g>
														<g>
															<g>
																<rect x="1114.72" y="1755" width="1.34" height="33.09"/>
															</g>
														</g>
													</g>
												</g>
											</g>
										</g>
									</g>
								</g>
							</g>
						</g>
						<g>
							<g>
								<g>
									<g>
										<g>
											<g>
												<g>
													<g>
														<g>
															<g>
																<path d="M1176.39,1755.36c2.57,0,4.11-0.22,4.16-0.23l-0.2-1.36c-0.16,0.02-15.98,2.3-31.03-8.33l-0.76,1.14
																	C1159.34,1754.19,1170.53,1755.36,1176.39,1755.36z"/>
															</g>
														</g>
													</g>
												</g>
											</g>
										</g>
									</g>
								</g>
							</g>
						</g>
						<g>
							<g>
								<g>
									<g>
										<g>
											<g>
												<g>
													<g>
														<g>
															<g>
																<polygon points="1131.71,1782.04 1132.46,1780.9 1123.9,1774.98 1123.15,1776.12 																"/>
															</g>
														</g>
													</g>
												</g>
											</g>
										</g>
									</g>
								</g>
							</g>
						</g>
						<g>
							<g>
								<g>
									<g>
										<g>
											<g>
												<g>
													<g>
														<g>
															<g>
																<polygon points="1137.85,1780.37 1138.6,1779.23 1130.04,1773.3 1129.29,1774.44 																"/>
															</g>
														</g>
													</g>
												</g>
											</g>
										</g>
									</g>
								</g>
							</g>
						</g>
						<g>
							<g>
								<g>
									<g>
										<g>
											<g>
												<g>
													<g>
														<g>
															<g>
																<g>
																	<g>
																		<g>
																			<g>
																				<g>
																					<g>
																						<path d="M1303.44,1804.99c2.17-1.89,3.41-4.64,3.41-7.56c0-5.46-4.33-9.91-9.66-9.91h-181.56
																							c-2.86,0-5.18,2.38-5.18,5.31v9.19h1.34v-9.19c0-2.17,1.72-3.93,3.83-3.93h181.56c4.59,0,8.32,3.83,8.32,8.53
																							c0,2.51-1.07,4.88-2.94,6.51L1303.44,1804.99z"/>
																					</g>
																				</g>
																			</g>
																		</g>
																	</g>
																</g>
															</g>
														</g>
													</g>
												</g>
											</g>
										</g>
									</g>
								</g>
							</g>
						</g>
						<g>
							<g>
								<g>
									<g>
										<g>
											<g>
												<g>
													<g>
														<g>
															<g>
																<path d="M1296.58,1788.51l1.22-0.59c-0.15-0.33-3.83-8.06-17.55-14.06c-13.49-5.9-72.81-32.89-73.4-33.16
																	l-0.55,1.26c0.6,0.27,59.93,27.27,73.42,33.17C1292.93,1780.9,1296.55,1788.43,1296.58,1788.51z"/>
															</g>
														</g>
													</g>
												</g>
											</g>
										</g>
									</g>
								</g>
							</g>
						</g>
					</g>
				</g>
				<g>
					<g>
						<g>
							<g>
								<g>
									<path class="st9" d="M1065.53,1333.58c-21.33-56.97-87.68-70.54-87.68-70.54s-141.72-18.79-164.91,20.27
										c-47.82,80.55,1.43,148.48,43.55,157.84c10.23,2.27,27.52,0.99,46.94,1.57c15.64,0.47,42.05-0.6,42.05-0.6l-43.16,244.41
										c38.48,9.33,103.58,11.21,103.58,11.21C1058.33,1573.29,1074.38,1357.22,1065.53,1333.58z"/>
								</g>
							</g>
						</g>
					</g>
				</g>
				<g>
					<g>
						<g>
							<g>
								<g>
									<path class="st6" d="M1284.32,1389.35c2.14-66.31-237.38-78.73-237.38-78.73s-134.82-47.35-158.01-8.29
										c-47.82,80.55,1.43,148.48,43.55,157.84c10.23,2.27,27.52,0.9,46.94,1.57c55.77,1.91,133.47,0.85,145.31,0.68l0.02,0.03
										l37.32-1.3l-43.16,244.41c38.48,9.33,103.58,11.21,103.58,11.21C1274.92,1592.32,1283.51,1414.58,1284.32,1389.35z"/>
								</g>
							</g>
						</g>
					</g>
				</g>
				<g>
					<g>
						<g>
							<path class="st17" d="M1337.51,1154.38l-169.56-23.88c0,0-105.08-133.74-119.41-143.29c-14.33-9.55-76.42-35.82-183.89-33.43
								c-107.47,2.39-126.57,234.04-126.57,234.04s169.26,194.67,176.73,195.83c101.96,15.83,138.64-72.62,138.64-72.62l-9.9-156.88
								l54.18,44.3h239.78V1154.38z"/>
						</g>
					</g>
				</g>
				<g>
					<g>
						<g>
							<g>
								<g>
									<g>
										<g>
											<path d="M858.24,1322.68c0.69-0.05,1.24-0.63,1.23-1.33c-0.48-58-3.02-305.17-3.02-306.04c0.01-0.73-0.58-1.33-1.32-1.34
												c-0.75,0-1.33,0.58-1.34,1.32c-0.01,0.86,2.53,248.06,3.02,306.08c0.01,0.73,0.61,1.32,1.34,1.32
												C858.19,1322.68,858.22,1322.68,858.24,1322.68z"/>
										</g>
									</g>
								</g>
							</g>
						</g>
					</g>
				</g>
				<g>
					<g>
						<g>
							<g>
								<g>
									<path class="st15" d="M977.97,1022.84l30.83,407.59c1.47,19.46-3.48,35.22-11.05,35.22H770.43
										c-7.58,0-14.91-15.77-16.38-35.22l-30.83-407.59c-1.47-19.46,3.48-35.22,11.05-35.22h227.32
										C969.17,987.61,976.5,1003.38,977.97,1022.84z"/>
								</g>
							</g>
						</g>
					</g>
				</g>
				<g>
					<g>
						<g>
							<g>
								<g>
									<path class="st14" d="M964.91,1022.84l30.83,407.59c1.47,19.46-3.48,35.22-11.05,35.22H757.36
										c-7.58,0-14.91-15.77-16.38-35.22l-30.83-407.59c-1.47-19.46,3.48-35.22,11.05-35.22h227.32
										C956.1,987.61,963.44,1003.38,964.91,1022.84z"/>
								</g>
							</g>
						</g>
					</g>
				</g>
				<g>
					<g>
						<g>
							<g>
								<g>
									<path class="st15" d="M1140.84,1438.25h-358.7c-6.85,0-12.4,6.14-12.4,13.7c0,7.57,5.55,13.7,12.4,13.7h358.7
										c6.85,0,12.4-6.14,12.4-13.7C1153.24,1444.38,1147.69,1438.25,1140.84,1438.25z"/>
								</g>
							</g>
						</g>
					</g>
				</g>
				<g>
					<g>
						<g>
							<g>
								<g>
									<path class="st14" d="M995.39,1438.25H782.96c-7.3,0-13.22,6.14-13.22,13.7c0,7.57,5.92,13.7,13.22,13.7h212.42
										c0.37,0,2,0.03,2.36,0c6.79-0.58,10.86-6.52,10.86-13.7C1008.61,1444.38,1002.69,1438.25,995.39,1438.25z"/>
								</g>
							</g>
						</g>
					</g>
				</g>
				<g>
					<g>
						<g>
							<g>
								<g>
									<polygon class="st15" points="995.56,1427.97 997.75,1465.65 1022.39,1465.65 1007.31,1438.25 									"/>
								</g>
							</g>
						</g>
					</g>
				</g>
				<g>
					<g>
						<g>
							<g>
								<g>
									<g>
										<path class="st8" d="M1030.51,1784.99h-87.76v-319.34h-19.5v319.34h-85.48c-11.93,0-21.6,9.67-21.6,21.6h107.08h19.5
											h109.35C1052.11,1794.66,1042.44,1784.99,1030.51,1784.99z"/>
									</g>
								</g>
							</g>
						</g>
					</g>
				</g>
				<g>
					<g>
						<g>
							<g>
								<g>
									<path d="M732.38,1331.93l-22.41-296.3c-3.24-21.51,0.66-36.19,3.27-43.02c2.2-5.75,7.32-6.54,9.82-6.15h221.46v2.3H722.85
										l-0.1-0.02c-0.21-0.04-5.27-0.8-7.38,4.69c-2.53,6.62-6.3,20.87-3.13,41.94l22.42,296.38L732.38,1331.93z"/>
								</g>
							</g>
						</g>
					</g>
				</g>
				<g>
					<g>
						<g>
							<g>
								<g>
									
										<rect x="980.67" y="1092.87" transform="matrix(0.9972 -0.0754 0.0754 0.9972 -91.2168 77.6112)" width="2.3" height="306.95"/>
								</g>
							</g>
						</g>
					</g>
				</g>
				<g>
					<g>
						<g>
							<g>
								<g>
									<rect x="757.36" y="1464.5" width="383.48" height="2.3"/>
								</g>
							</g>
						</g>
					</g>
				</g>
				<g>
					<g>
						<g>
							<g>
								<g>
									
										<rect x="804.18" y="1340.74" transform="matrix(0.8164 -0.5775 0.5775 0.8164 -637.2853 714.7415)" width="2.3" height="37.58"/>
								</g>
							</g>
						</g>
					</g>
				</g>
				<g>
					<g>
						<g>
							<g>
								<g>
									
										<rect x="804.18" y="1367.54" transform="matrix(0.8164 -0.5775 0.5775 0.8164 -652.7727 719.6888)" width="2.3" height="37.58"/>
								</g>
							</g>
						</g>
					</g>
				</g>
				<g>
					<g>
						<g>
							<g>
								<g>
									<polygon points="1030.51,1786.14 941.6,1786.14 941.6,1465.65 943.9,1465.65 943.9,1783.84 1030.51,1783.84 									"/>
								</g>
							</g>
						</g>
					</g>
				</g>
				<g>
					<g>
						<g>
							<path d="M1336.35,1182.97h2.3v-29.59l-170.1-23.96c-5.52-6.96-87.37-110.11-105.95-129.72c-0.36-0.41-9.56-10.7-17.45-15.85
								c-7-4.57-34.73-20.03-97.37-27.04l-0.26,2.29c62.14,6.95,89.48,22.18,96.37,26.68c7.63,4.98,16.92,15.38,17.01,15.48
								c19.09,20.16,105.26,128.86,106.13,129.96l0.29,0.36l169.03,23.81V1182.97z"/>
						</g>
					</g>
				</g>
				<g>
					<g>
						<g>
							<path d="M1026.48,1350.92c13.44-11.56,27.39-38.24,27.98-39.37l0.15-0.28l-9.92-157.2l-2.3,0.14l9.88,156.56
								c-1.55,2.92-14.91,27.75-27.29,38.4L1026.48,1350.92z"/>
						</g>
					</g>
				</g>
				<g>
					<g>
						<g>
							
								<rect x="1064.67" y="1131.15" transform="matrix(0.6327 -0.7744 0.7744 0.6327 -516.3993 1255.8765)" width="2.3" height="82.42"/>
						</g>
					</g>
				</g>
			</g>
			<g>
				<g>
					
						<rect x="1046.38" y="1198.2" transform="matrix(1 -1.112741e-03 1.112741e-03 1 -1.3332 1.6106)" width="800.81" height="1.36"/>
				</g>
			</g>
			<g>
				<g>
					<rect x="1047.45" y="1217.32" width="799.74" height="1.36"/>
				</g>
			</g>
			<g>
				<g>
					<path d="M1789.51,1351.36h1.36c0,0-0.1-131.11-0.1-133.36h-1.36C1789.42,1220.25,1789.51,1351.36,1789.51,1351.36z"/>
				</g>
			</g>
			<g>
				<g>
					<rect x="1517.96" y="1218" width="1.36" height="588.59"/>
				</g>
			</g>
			<g>
				<g>
					<rect x="1538.18" y="1218" width="1.36" height="287.51"/>
				</g>
			</g>
			<g>
				<g>
					
						<rect x="1654.25" y="1254.81" transform="matrix(0.7449 -0.6671 0.6671 0.7449 -411.7102 1434.158)" width="30.83" height="1.36"/>
				</g>
			</g>
			<g>
				<g>
					<polygon points="1655.73,1282.1 1678.7,1261.53 1677.79,1260.52 1654.82,1281.09 					"/>
				</g>
			</g>
			<g>
				<g>
					<rect x="1281.17" y="1625.22" width="236.85" height="1.36"/>
				</g>
			</g>
		</g>
		<g>
			<path class="st18" d="M1410.6,881.67c0.31,2.17,0.47,4.4,0.47,6.65c0,26.17-21.21,47.38-47.38,47.38s-47.38-21.21-47.38-47.38
				c0-26.17,21.21-47.38,47.38-47.38c15.43,0,29.14,7.38,37.79,18.8l11.39-10.81c-11.55-14.4-29.28-23.61-49.17-23.61
				c-34.8,0-63.01,28.21-63.01,63.01c0,34.8,28.21,63.01,63.01,63.01s63.01-28.21,63.01-63.01c0-3.05-0.22-6.05-0.64-8.99
				L1410.6,881.67z"/>
			<path class="st14" d="M1403.76,1022.41h-80.27c-19.55,0-35.4-15.85-35.4-35.4v-79.26c0-9.7,7.86-17.56,17.56-17.56h115.95
				c9.7,0,17.56,7.86,17.56,17.56V987C1439.16,1006.56,1423.31,1022.41,1403.76,1022.41z"/>
			<g>
				<path class="st10" d="M1337.16,1023.03h-13.68c-19.87,0-36.03-16.16-36.03-36.03v-79.26c0-0.34,0.28-0.62,0.62-0.62
					c0.34,0,0.62,0.28,0.62,0.62V987c0,19.18,15.6,34.78,34.78,34.78h13.68c0.34,0,0.62,0.28,0.62,0.62
					C1337.79,1022.75,1337.51,1023.03,1337.16,1023.03z"/>
			</g>
			<g>
				<path class="st10" d="M1439.16,913.04c-0.34,0-0.62-0.28-0.62-0.62v-4.67c0-9.34-7.6-16.94-16.94-16.94h-35.35
					c-0.34,0-0.62-0.28-0.62-0.62c0-0.34,0.28-0.62,0.62-0.62h35.35c10.03,0,18.19,8.16,18.19,18.19v4.67
					C1439.78,912.76,1439.5,913.04,1439.16,913.04z"/>
			</g>
			<g>
				<path class="st10" d="M1426.7,888.95c-0.34,0-0.62-0.28-0.62-0.62c0-2.75-0.18-5.53-0.55-8.28l-14.83,2.24
					c-0.34,0.05-0.66-0.18-0.71-0.52c-0.05-0.34,0.18-0.66,0.52-0.71l16.08-2.43l0.09,0.62c0.43,3.01,0.65,6.06,0.65,9.07
					C1427.32,888.67,1427.04,888.95,1426.7,888.95z"/>
			</g>
			<g>
				<path class="st10" d="M1300.67,888.95c-0.34,0-0.62-0.28-0.62-0.62c0-35.09,28.55-63.64,63.64-63.64
					c19.4,0,37.5,8.69,49.66,23.85l0.36,0.45l-12.31,11.69l-0.42-0.56c-8.93-11.79-22.52-18.55-37.29-18.55
					c-0.34,0-0.62-0.28-0.62-0.62c0-0.34,0.28-0.62,0.62-0.62c14.93,0,28.69,6.73,37.86,18.49l10.47-9.94
					c-11.92-14.58-29.5-22.94-48.33-22.94c-34.4,0-62.39,27.99-62.39,62.39C1301.29,888.67,1301.01,888.95,1300.67,888.95z"/>
			</g>
			<path class="st3" d="M1376.28,945.41c0-6.99-5.67-12.66-12.66-12.66c-6.99,0-12.66,5.67-12.66,12.66c0,5.17,3.1,9.61,7.53,11.57
				v17.73c0,2.83,2.3,5.13,5.13,5.13l0,0c2.83,0,5.13-2.3,5.13-5.13v-17.73C1373.19,955.01,1376.28,950.57,1376.28,945.41z"/>
			<g>
				<path class="st10" d="M1363.62,980.47c-3.17,0-5.75-2.58-5.75-5.75v-17.33c-4.59-2.21-7.53-6.86-7.53-11.97
					c0-7.32,5.96-13.28,13.28-13.28c7.32,0,13.28,5.96,13.28,13.28c0,0.34-0.28,0.62-0.62,0.62c-0.34,0-0.62-0.28-0.62-0.62
					c0-6.64-5.4-12.04-12.04-12.04c-6.64,0-12.04,5.4-12.04,12.04c0,4.75,2.81,9.07,7.16,11l0.37,0.16v18.14
					c0,2.48,2.02,4.51,4.51,4.51c0.34,0,0.62,0.28,0.62,0.62C1364.24,980.19,1363.97,980.47,1363.62,980.47z"/>
			</g>
		</g>
	</g>
	<g>
		<g>
			<rect x="282.42" y="1805.77" class="st10" width="1794.4" height="7.3"/>
		</g>
	</g>
</g>
</svg>
